<svg xmlns="http://www.w3.org/2000/svg" xmlns:xlink="http://www.w3.org/1999/xlink" width="3845.075" height="3703.814" viewBox="0 0 3845.075 3703.814">
  <defs>
    <linearGradient id="linear-gradient" x1="0.5" x2="0.5" y2="1" gradientUnits="objectBoundingBox">
      <stop offset="0" stop-color="#0a2785"/>
      <stop offset="0.5" stop-color="#416fb7"/>
      <stop offset="1" stop-color="#76b5e8"/>
      <stop offset="1" stop-color="#804900"/>
    </linearGradient>
    <filter id="Polygon_1" x="0" y="0" width="3845.075" height="3703.814" filterUnits="userSpaceOnUse">
      <feOffset dy="40" input="SourceAlpha"/>
      <feGaussianBlur stdDeviation="25" result="blur"/>
      <feFlood flood-opacity="0.161"/>
      <feComposite operator="in" in2="blur"/>
      <feComposite in="SourceGraphic"/>
    </filter>
    <linearGradient id="linear-gradient-2" x1="0.878" y1="0.271" x2="-0.074" y2="0.787" gradientUnits="objectBoundingBox">
      <stop offset="0" stop-color="#75b4e7"/>
      <stop offset="1" stop-color="#14348e"/>
      <stop offset="1" stop-color="#804900"/>
    </linearGradient>
    <filter id="Subtraction_10" x="596.007" y="408.637" width="2654.062" height="2485.6" filterUnits="userSpaceOnUse">
      <feOffset dy="40" input="SourceAlpha"/>
      <feGaussianBlur stdDeviation="25" result="blur-2"/>
      <feFlood flood-opacity="0.161"/>
      <feComposite operator="in" in2="blur-2"/>
      <feComposite in="SourceGraphic"/>
    </filter>
    <linearGradient id="linear-gradient-3" x1="0.5" x2="0.5" y2="1" gradientUnits="objectBoundingBox">
      <stop offset="0" stop-color="#4467bd"/>
      <stop offset="1" stop-color="#76b5e8"/>
      <stop offset="1" stop-color="#804900"/>
    </linearGradient>
    <filter id="Subtraction_2" x="595.007" y="407.637" width="2654.062" height="2485.6" filterUnits="userSpaceOnUse">
      <feOffset dy="40" input="SourceAlpha"/>
      <feGaussianBlur stdDeviation="25" result="blur-3"/>
      <feFlood flood-opacity="0.161"/>
      <feComposite operator="in" in2="blur-3"/>
      <feComposite in="SourceGraphic"/>
    </filter>
    <linearGradient id="linear-gradient-4" y1="0.357" x2="1" y2="0.357" gradientUnits="objectBoundingBox">
      <stop offset="0" stop-color="#2d51b2"/>
      <stop offset="1" stop-color="#1c53b8"/>
    </linearGradient>
    <filter id="Union_1" x="1392.111" y="1076.964" width="1129" height="1476.999" filterUnits="userSpaceOnUse">
      <feOffset dx="40" dy="40" input="SourceAlpha"/>
      <feGaussianBlur stdDeviation="20" result="blur-4"/>
      <feFlood flood-opacity="0.49"/>
      <feComposite operator="in" in2="blur-4"/>
      <feComposite in="SourceGraphic"/>
    </filter>
    <linearGradient id="linear-gradient-5" y1="1" x2="1" y2="1" gradientUnits="objectBoundingBox">
      <stop offset="0" stop-color="#8ab0db"/>
      <stop offset="0.751" stop-color="#b6d9fc"/>
      <stop offset="1" stop-color="#c5dff3"/>
    </linearGradient>
    <filter id="w1" x="1367.111" y="1114.791" width="388.05" height="781.231" filterUnits="userSpaceOnUse">
      <feOffset dx="20" dy="20" input="SourceAlpha"/>
      <feGaussianBlur stdDeviation="20" result="blur-5"/>
      <feFlood flood-opacity="0.161"/>
      <feComposite operator="in" in2="blur-5"/>
      <feComposite in="SourceGraphic"/>
    </filter>
    <linearGradient id="linear-gradient-6" x1="0.774" y1="0.13" x2="-0.242" y2="0.867" gradientUnits="objectBoundingBox">
      <stop offset="0" stop-color="#7ca9dc"/>
      <stop offset="1" stop-color="#a1cdeb"/>
    </linearGradient>
    <filter id="w2" x="1471.539" y="1485.109" width="333.364" height="624.482" filterUnits="userSpaceOnUse">
      <feOffset dx="20" dy="20" input="SourceAlpha"/>
      <feGaussianBlur stdDeviation="20" result="blur-6"/>
      <feFlood flood-opacity="0.161"/>
      <feComposite operator="in" in2="blur-6"/>
      <feComposite in="SourceGraphic"/>
    </filter>
    <linearGradient id="linear-gradient-7" x1="1" y1="-0.064" x2="-0.121" y2="0.636" gradientUnits="objectBoundingBox">
      <stop offset="0" stop-color="#b0ddef"/>
      <stop offset="1" stop-color="#3666bb"/>
    </linearGradient>
    <linearGradient id="linear-gradient-8" x1="0.248" y1="1" x2="0.968" gradientUnits="objectBoundingBox">
      <stop offset="0" stop-color="#669cdb"/>
      <stop offset="1" stop-color="#c5e5fb"/>
    </linearGradient>
    <filter id="w4" x="1559.252" y="2101.432" width="742.449" height="436.53" filterUnits="userSpaceOnUse">
      <feOffset dx="20" dy="20" input="SourceAlpha"/>
      <feGaussianBlur stdDeviation="20" result="blur-7"/>
      <feFlood flood-opacity="0.161"/>
      <feComposite operator="in" in2="blur-7"/>
      <feComposite in="SourceGraphic"/>
    </filter>
    <linearGradient id="linear-gradient-9" x1="0.211" y1="0.326" x2="1.08" y2="0.326" gradientUnits="objectBoundingBox">
      <stop offset="0" stop-color="#78a8d6"/>
      <stop offset="1" stop-color="#aad0e6"/>
    </linearGradient>
    <filter id="w5" x="1991.04" y="1520.246" width="478.574" height="671.287" filterUnits="userSpaceOnUse">
      <feOffset dx="20" dy="20" input="SourceAlpha"/>
      <feGaussianBlur stdDeviation="20" result="blur-8"/>
      <feFlood flood-opacity="0.161"/>
      <feComposite operator="in" in2="blur-8"/>
      <feComposite in="SourceGraphic"/>
    </filter>
    <linearGradient id="linear-gradient-10" x1="-0.053" y1="0.554" x2="1.078" y2="0.094" gradientUnits="objectBoundingBox">
      <stop offset="0" stop-color="#6fa7d9"/>
      <stop offset="1" stop-color="#b0d7f5"/>
    </linearGradient>
    <filter id="w6" x="2065.759" y="907.677" width="651.369" height="890.749" filterUnits="userSpaceOnUse">
      <feOffset dx="20" dy="20" input="SourceAlpha"/>
      <feGaussianBlur stdDeviation="20" result="blur-9"/>
      <feFlood flood-opacity="0.161"/>
      <feComposite operator="in" in2="blur-9"/>
      <feComposite in="SourceGraphic"/>
    </filter>
    <linearGradient id="linear-gradient-11" x1="1.119" x2="-0.067" y2="0.5" gradientUnits="objectBoundingBox">
      <stop offset="0" stop-color="#b2e0fa"/>
      <stop offset="0.695" stop-color="#8ebbe4"/>
      <stop offset="1" stop-color="#1f52b7"/>
    </linearGradient>
    <filter id="w3" x="2396.137" y="1606.326" width="375.091" height="490.299" filterUnits="userSpaceOnUse">
      <feOffset dx="40" dy="40" input="SourceAlpha"/>
      <feGaussianBlur stdDeviation="20" result="blur-10"/>
      <feFlood flood-color="#201a1f" flood-opacity="0.6"/>
      <feComposite operator="in" in2="blur-10"/>
      <feComposite in="SourceGraphic"/>
    </filter>
    <linearGradient id="linear-gradient-12" x1="0.211" y1="0.767" x2="0.852" y2="0.276" gradientUnits="objectBoundingBox">
      <stop offset="0" stop-color="#98c3ec"/>
      <stop offset="1" stop-color="#d9edfb"/>
    </linearGradient>
    <filter id="Ellipse_13" x="2594.111" y="711.964" width="253" height="253" filterUnits="userSpaceOnUse">
      <feOffset dy="3" input="SourceAlpha"/>
      <feGaussianBlur stdDeviation="3" result="blur-11"/>
      <feFlood flood-opacity="0.161"/>
      <feComposite operator="in" in2="blur-11"/>
      <feComposite in="SourceGraphic"/>
    </filter>
    <filter id="Ellipse_15" x="1664.111" y="1984.964" width="279" height="288" filterUnits="userSpaceOnUse">
      <feOffset dx="20" dy="20" input="SourceAlpha"/>
      <feGaussianBlur stdDeviation="20" result="blur-12"/>
      <feFlood flood-opacity="0.161"/>
      <feComposite operator="in" in2="blur-12"/>
      <feComposite in="SourceGraphic"/>
    </filter>
    <filter id="Ellipse_16" x="2648.111" y="1531.964" width="226" height="225" filterUnits="userSpaceOnUse">
      <feOffset dx="40" dy="40" input="SourceAlpha"/>
      <feGaussianBlur stdDeviation="20" result="blur-13"/>
      <feFlood flood-color="#201a1f" flood-opacity="0.6"/>
      <feComposite operator="in" in2="blur-13"/>
      <feComposite in="SourceGraphic"/>
    </filter>
  </defs>
  <g id="logo" transform="translate(75 35)">
    <g transform="matrix(1, 0, 0, 1, -75, -35)" filter="url(#Polygon_1)">
      <g id="Polygon_1-2" data-name="Polygon 1" transform="translate(3770.07 2165.69) rotate(150)" fill="url(#linear-gradient)">
        <path d="M1827.819,0a532,532,0,0,1,460.51,265.627l403.835,698.156a532,532,0,0,1,0,532.746l-403.835,698.156a532,532,0,0,1-460.51,265.627h-809.4a532,532,0,0,1-460.51-265.627L154.079,1496.529a532,532,0,0,1,0-532.746L557.914,265.627A532,532,0,0,1,1018.424,0Z" stroke="none"/>
        <path d="M 1018.423828125 0.999755859375 C 971.6444091796875 0.999755859375 925.066162109375 7.174560546875 879.9827880859375 19.351806640625 C 835.629150390625 31.33251953125 792.94287109375 49.056884765625 753.110107421875 72.03271484375 C 713.27734375 95.0087890625 676.561767578125 123.084228515625 643.983154296875 155.479248046875 C 610.868896484375 188.40673828125 582.2021484375 225.634521484375 558.77978515625 266.12744140625 L 154.944091796875 964.283447265625 C 131.465576171875 1004.873779296875 113.459716796875 1048.391845703125 101.42724609375 1093.629150390625 C 89.590087890625 1138.131103515625 83.588134765625 1184.0654296875 83.588134765625 1230.156127929688 C 83.588134765625 1276.246826171875 89.590087890625 1322.18115234375 101.42724609375 1366.68310546875 C 113.459716796875 1411.92041015625 131.465576171875 1455.4384765625 154.944091796875 1496.028442382813 L 558.779541015625 2194.184814453125 C 582.201904296875 2234.677734375 610.868408203125 2271.905517578125 643.983154296875 2304.8330078125 C 676.561767578125 2337.227783203125 713.27734375 2365.30322265625 753.110107421875 2388.279052734375 C 792.94287109375 2411.255126953125 835.629150390625 2428.9794921875 879.9827880859375 2440.960205078125 C 925.066162109375 2453.137451171875 971.6444091796875 2459.31201171875 1018.423828125 2459.31201171875 L 1827.81884765625 2459.31201171875 C 1874.59814453125 2459.31201171875 1921.176513671875 2453.137451171875 1966.259765625 2440.960205078125 C 2010.61376953125 2428.9794921875 2053.2998046875 2411.255126953125 2093.1328125 2388.279052734375 C 2132.96533203125 2365.30322265625 2169.68115234375 2337.227783203125 2202.259765625 2304.8330078125 C 2235.3740234375 2271.905517578125 2264.040771484375 2234.677734375 2287.46337890625 2194.184814453125 L 2691.29833984375 1496.028442382813 C 2714.777099609375 1455.4384765625 2732.78271484375 1411.92041015625 2744.8154296875 1366.68310546875 C 2756.65234375 1322.18115234375 2762.654541015625 1276.246826171875 2762.654541015625 1230.156127929688 C 2762.654541015625 1184.0654296875 2756.65234375 1138.131103515625 2744.8154296875 1093.629150390625 C 2732.78271484375 1048.391845703125 2714.777099609375 1004.873779296875 2691.29833984375 964.283447265625 L 2287.46337890625 266.12744140625 C 2264.040771484375 225.634033203125 2235.3740234375 188.40673828125 2202.259765625 155.479248046875 C 2169.68115234375 123.084228515625 2132.96533203125 95.0087890625 2093.1328125 72.03271484375 C 2053.300048828125 49.056884765625 2010.61376953125 31.33251953125 1966.259765625 19.351806640625 C 1921.1767578125 7.174560546875 1874.598388671875 0.999755859375 1827.819091796875 0.999755859375 L 1018.423828125 0.999755859375 M 1018.423828125 -0.000244140625 L 1827.819091796875 -0.000244140625 C 2017.73046875 -0.000244140625 2193.23974609375 101.2353515625 2288.3291015625 265.626708984375 L 2692.1640625 963.7828369140625 C 2787.484375 1128.573852539063 2787.484375 1331.738403320313 2692.1640625 1496.529052734375 L 2288.3291015625 2194.685546875 C 2193.23974609375 2359.076416015625 2017.73046875 2460.31201171875 1827.81884765625 2460.31201171875 L 1018.423828125 2460.31201171875 C 828.512451171875 2460.31201171875 653.002685546875 2359.076416015625 557.913818359375 2194.685546875 L 154.078369140625 1496.529052734375 C 58.758056640625 1331.738403320313 58.758056640625 1128.573852539063 154.078369140625 963.7828369140625 L 557.9140625 265.626708984375 C 653.002685546875 101.2353515625 828.512451171875 -0.000244140625 1018.423828125 -0.000244140625 Z" stroke="none" fill="rgba(19,106,138,0.98)"/>
      </g>
    </g>
    <g transform="matrix(1, 0, 0, 1, -75, -35)" filter="url(#Subtraction_10)">
      <g id="Subtraction_10-2" data-name="Subtraction 10" transform="matrix(-0.02, -1, 1, -0.02, 110.15, 3612.79)" fill="url(#linear-gradient-2)">
        <path d="M2181.177,3079.747h-.435l-10.57-.008c5.049-.029,10.144-.13,15.146-.3l-426.113-.344a531.9,531.9,0,0,1-460.3-266l-404.7-700.957A531.893,531.893,0,0,1,894,1580.51L1296.7,881.7a531.959,531.959,0,0,1,442.8-266.064l-369.9-.3c1.071-.006,2.039-.008,3.037-.008h.435l806.539.654a531.9,531.9,0,0,1,460.295,266l404.7,700.957a531.9,531.9,0,0,1,.215,531.627l-402.7,698.809a531.925,531.925,0,0,1-460.937,266.373Z" stroke="none"/>
        <path d="M 2185.3232421875 3078.730712890625 C 2230.77783203125 3078.375244140625 2276.0029296875 3072.19091796875 2319.821533203125 3060.33544921875 C 2364.23779296875 3048.31787109375 2406.9775390625 3030.540771484375 2446.853759765625 3007.498046875 C 2486.732421875 2984.453125 2523.4765625 2956.298583984375 2556.064697265625 2923.81640625 C 2589.1943359375 2890.796630859375 2617.8544921875 2853.470703125 2641.247802734375 2812.874755859375 L 3043.950927734375 2114.0654296875 C 3067.30859375 2073.534423828125 3085.215087890625 2030.094848632813 3097.173583984375 1984.952270507813 C 3108.939208984375 1940.54296875 3114.895751953125 1894.70849609375 3114.877197265625 1848.722900390625 C 3114.8583984375 1802.739135742188 3108.864990234375 1756.909545898438 3097.0634765625 1712.506958007813 C 3085.068115234375 1667.374755859375 3067.126708984375 1623.949829101563 3043.73681640625 1583.437866210938 L 2639.039306640625 882.4813842773438 C 2615.649658203125 841.9691772460938 2587.01318359375 804.71826171875 2553.92529296875 771.7635498046875 C 2521.37255859375 739.3419799804688 2484.6796875 711.2369995117188 2444.8662109375 688.2288818359375 C 2405.05224609375 665.2210693359375 2362.380126953125 647.4619750976563 2318.03564453125 635.4454345703125 C 2272.9638671875 623.2313842773438 2226.390625 617.0191650390625 2179.609375 616.9810791015625 L 1739.533325195313 616.6243286132813 L 1739.533447265625 616.6357421875 C 1694.36474609375 618.1741943359375 1649.521606445313 625.4835205078125 1606.250366210938 638.3610229492188 C 1563.590942382813 651.0545043945313 1522.595947265625 669.1116943359375 1484.40380859375 692.03076171875 C 1446.169067382813 714.9735717773438 1410.918823242188 742.6845092773438 1379.631958007813 774.3938598632813 C 1347.826293945313 806.6263427734375 1320.215698242188 842.8975830078125 1297.567260742188 882.2001342773438 L 894.86376953125 1581.009155273438 C 871.506591796875 1621.540771484375 853.5997314453125 1664.980712890625 841.6400146484375 1710.122314453125 C 829.874755859375 1754.53662109375 823.9187622070313 1800.37109375 823.9378662109375 1846.352294921875 C 823.9566040039063 1892.333862304688 829.94970703125 1938.16357421875 841.7512817382813 1982.568237304688 C 853.7481689453125 2027.703857421875 871.6903686523438 2071.129150390625 895.0784912109375 2111.63720703125 L 1299.775634765625 2812.59375 C 1323.167236328125 2853.109130859375 1351.803833007813 2890.35986328125 1384.889770507813 2923.311767578125 C 1417.44091796875 2955.73193359375 1454.1337890625 2983.83740234375 1493.94873046875 3006.846435546875 C 1533.762573242188 3029.853759765625 1576.434448242188 3047.6123046875 1620.779052734375 3059.62890625 C 1665.850341796875 3071.843505859375 1712.423461914063 3078.05615234375 1759.205688476563 3078.09375 L 2185.318359375 3078.438232421875 L 2185.3232421875 3078.730712890625 M 2181.177001953125 3079.7470703125 L 2180.742431640625 3079.7470703125 L 2170.172119140625 3079.73876953125 C 2175.220947265625 3079.709716796875 2180.31640625 3079.609130859375 2185.317626953125 3079.438232421875 L 1759.204711914063 3079.09375 C 1712.335083007813 3079.05615234375 1665.674072265625 3072.83203125 1620.517578125 3060.59423828125 C 1576.088745117188 3048.5546875 1533.336547851563 3030.7626953125 1493.448486328125 3007.71240234375 C 1453.558471679688 2984.659912109375 1416.796630859375 2956.501708984375 1384.18408203125 2924.02001953125 C 1351.035400390625 2891.006103515625 1322.345092773438 2853.68505859375 1298.90966796875 2813.09375 L 894.2125244140625 2112.13720703125 C 870.780029296875 2071.552734375 852.804443359375 2028.045776367188 840.7847290039063 1982.825073242188 C 828.9609985351563 1938.336059570313 822.9566040039063 1892.420166015625 822.9378662109375 1846.352661132813 C 822.9187622070313 1800.284790039063 828.885986328125 1754.364135742188 840.6734619140625 1709.866333007813 C 852.6556396484375 1664.63916015625 870.5963134765625 1621.117553710938 893.9972534179688 1580.509765625 L 1296.70068359375 881.7007446289063 C 1319.3916015625 842.3248291015625 1347.054077148438 805.985107421875 1378.920043945313 773.6913452148438 C 1410.2666015625 741.9216918945313 1445.58349609375 714.1588745117188 1483.889404296875 691.1732177734375 C 1522.15380859375 668.2107543945313 1563.225952148438 650.1198120117188 1605.965087890625 637.402587890625 C 1649.318481445313 624.500732421875 1694.245971679688 617.1776123046875 1739.499389648438 615.6363525390625 L 1369.599365234375 615.3357543945313 C 1370.670654296875 615.3301391601563 1371.638427734375 615.3272705078125 1372.636596679688 615.3272705078125 L 1373.071899414063 615.3272705078125 L 2179.6103515625 615.9810791015625 C 2226.4794921875 616.0191650390625 2273.140625 622.2432250976563 2318.297119140625 634.4801025390625 C 2362.723876953125 646.5191650390625 2405.4765625 664.3113403320313 2445.36669921875 687.3629150390625 C 2485.255615234375 710.414794921875 2522.017333984375 738.5729370117188 2554.630859375 771.0551147460938 C 2587.781982421875 804.0726318359375 2616.47216796875 841.3938598632813 2639.9052734375 881.9813842773438 L 3044.602783203125 1582.937866210938 C 3068.036865234375 1623.526733398438 3086.01220703125 1667.033569335938 3098.030029296875 1712.250122070313 C 3109.853759765625 1756.736083984375 3115.8583984375 1802.651977539063 3115.877197265625 1848.72265625 C 3115.895751953125 1894.793212890625 3109.928466796875 1940.713500976563 3098.14013671875 1985.20849609375 C 3086.1591796875 2030.435791015625 3068.21875 2073.95751953125 3044.817626953125 2114.564697265625 L 2642.114501953125 2813.374267578125 C 2618.677001953125 2854.046142578125 2589.963134765625 2891.442626953125 2556.770751953125 2924.52490234375 C 2524.1201171875 2957.069091796875 2487.306396484375 2985.276611328125 2447.35400390625 3008.36376953125 C 2407.403076171875 3031.44970703125 2364.582763671875 3049.260498046875 2320.082763671875 3061.30078125 C 2274.84814453125 3073.53955078125 2228.11376953125 3079.745849609375 2181.177001953125 3079.7470703125 Z" stroke="none" fill="rgba(19,106,138,0.98)"/>
      </g>
    </g>
    <g transform="matrix(1, 0, 0, 1, -75, -35)" filter="url(#Subtraction_2)">
      <g id="Subtraction_2-2" data-name="Subtraction 2" transform="matrix(-0.02, -1, 1, -0.02, 109.15, 3611.79)" fill="url(#linear-gradient-3)">
        <path d="M2181.177,3079.747h-.435l-10.57-.008c5.049-.029,10.144-.13,15.146-.3l-426.113-.344a531.9,531.9,0,0,1-460.3-266l-404.7-700.957A531.893,531.893,0,0,1,894,1580.51L1296.7,881.7a531.959,531.959,0,0,1,442.8-266.064l-369.9-.3c1.071-.006,2.039-.008,3.037-.008h.435l806.539.654a531.9,531.9,0,0,1,460.295,266l404.7,700.957a531.9,531.9,0,0,1,.215,531.627l-402.7,698.809a531.925,531.925,0,0,1-460.937,266.373Z" stroke="none"/>
        <path d="M 2185.3232421875 3078.730712890625 C 2230.77783203125 3078.375244140625 2276.0029296875 3072.19091796875 2319.821533203125 3060.33544921875 C 2364.23779296875 3048.31787109375 2406.9775390625 3030.540771484375 2446.853759765625 3007.498046875 C 2486.732421875 2984.453125 2523.4765625 2956.298583984375 2556.064697265625 2923.81640625 C 2589.1943359375 2890.796630859375 2617.8544921875 2853.470703125 2641.247802734375 2812.874755859375 L 3043.950927734375 2114.0654296875 C 3067.30859375 2073.534423828125 3085.215087890625 2030.094848632813 3097.173583984375 1984.952270507813 C 3108.939208984375 1940.54296875 3114.895751953125 1894.70849609375 3114.877197265625 1848.722900390625 C 3114.8583984375 1802.739135742188 3108.864990234375 1756.909545898438 3097.0634765625 1712.506958007813 C 3085.068115234375 1667.374755859375 3067.126708984375 1623.949829101563 3043.73681640625 1583.437866210938 L 2639.039306640625 882.4813842773438 C 2615.649658203125 841.9691772460938 2587.01318359375 804.71826171875 2553.92529296875 771.7635498046875 C 2521.37255859375 739.3419799804688 2484.6796875 711.2369995117188 2444.8662109375 688.2288818359375 C 2405.05224609375 665.2210693359375 2362.380126953125 647.4619750976563 2318.03564453125 635.4454345703125 C 2272.9638671875 623.2313842773438 2226.390625 617.0191650390625 2179.609375 616.9810791015625 L 1739.533325195313 616.6243286132813 L 1739.533447265625 616.6357421875 C 1694.36474609375 618.1741943359375 1649.521606445313 625.4835205078125 1606.250366210938 638.3610229492188 C 1563.590942382813 651.0545043945313 1522.595947265625 669.1116943359375 1484.40380859375 692.03076171875 C 1446.169067382813 714.9735717773438 1410.918823242188 742.6845092773438 1379.631958007813 774.3938598632813 C 1347.826293945313 806.6263427734375 1320.215698242188 842.8975830078125 1297.567260742188 882.2001342773438 L 894.86376953125 1581.009155273438 C 871.506591796875 1621.540771484375 853.5997314453125 1664.980712890625 841.6400146484375 1710.122314453125 C 829.874755859375 1754.53662109375 823.9187622070313 1800.37109375 823.9378662109375 1846.352294921875 C 823.9566040039063 1892.333862304688 829.94970703125 1938.16357421875 841.7512817382813 1982.568237304688 C 853.7481689453125 2027.703857421875 871.6903686523438 2071.129150390625 895.0784912109375 2111.63720703125 L 1299.775634765625 2812.59375 C 1323.167236328125 2853.109130859375 1351.803833007813 2890.35986328125 1384.889770507813 2923.311767578125 C 1417.44091796875 2955.73193359375 1454.1337890625 2983.83740234375 1493.94873046875 3006.846435546875 C 1533.762573242188 3029.853759765625 1576.434448242188 3047.6123046875 1620.779052734375 3059.62890625 C 1665.850341796875 3071.843505859375 1712.423461914063 3078.05615234375 1759.205688476563 3078.09375 L 2185.318359375 3078.438232421875 L 2185.3232421875 3078.730712890625 M 2181.177001953125 3079.7470703125 L 2180.742431640625 3079.7470703125 L 2170.172119140625 3079.73876953125 C 2175.220947265625 3079.709716796875 2180.31640625 3079.609130859375 2185.317626953125 3079.438232421875 L 1759.204711914063 3079.09375 C 1712.335083007813 3079.05615234375 1665.674072265625 3072.83203125 1620.517578125 3060.59423828125 C 1576.088745117188 3048.5546875 1533.336547851563 3030.7626953125 1493.448486328125 3007.71240234375 C 1453.558471679688 2984.659912109375 1416.796630859375 2956.501708984375 1384.18408203125 2924.02001953125 C 1351.035400390625 2891.006103515625 1322.345092773438 2853.68505859375 1298.90966796875 2813.09375 L 894.2125244140625 2112.13720703125 C 870.780029296875 2071.552734375 852.804443359375 2028.045776367188 840.7847290039063 1982.825073242188 C 828.9609985351563 1938.336059570313 822.9566040039063 1892.420166015625 822.9378662109375 1846.352661132813 C 822.9187622070313 1800.284790039063 828.885986328125 1754.364135742188 840.6734619140625 1709.866333007813 C 852.6556396484375 1664.63916015625 870.5963134765625 1621.117553710938 893.9972534179688 1580.509765625 L 1296.70068359375 881.7007446289063 C 1319.3916015625 842.3248291015625 1347.054077148438 805.985107421875 1378.920043945313 773.6913452148438 C 1410.2666015625 741.9216918945313 1445.58349609375 714.1588745117188 1483.889404296875 691.1732177734375 C 1522.15380859375 668.2107543945313 1563.225952148438 650.1198120117188 1605.965087890625 637.402587890625 C 1649.318481445313 624.500732421875 1694.245971679688 617.1776123046875 1739.499389648438 615.6363525390625 L 1369.599365234375 615.3357543945313 C 1370.670654296875 615.3301391601563 1371.638427734375 615.3272705078125 1372.636596679688 615.3272705078125 L 1373.071899414063 615.3272705078125 L 2179.6103515625 615.9810791015625 C 2226.4794921875 616.0191650390625 2273.140625 622.2432250976563 2318.297119140625 634.4801025390625 C 2362.723876953125 646.5191650390625 2405.4765625 664.3113403320313 2445.36669921875 687.3629150390625 C 2485.255615234375 710.414794921875 2522.017333984375 738.5729370117188 2554.630859375 771.0551147460938 C 2587.781982421875 804.0726318359375 2616.47216796875 841.3938598632813 2639.9052734375 881.9813842773438 L 3044.602783203125 1582.937866210938 C 3068.036865234375 1623.526733398438 3086.01220703125 1667.033569335938 3098.030029296875 1712.250122070313 C 3109.853759765625 1756.736083984375 3115.8583984375 1802.651977539063 3115.877197265625 1848.72265625 C 3115.895751953125 1894.793212890625 3109.928466796875 1940.713500976563 3098.14013671875 1985.20849609375 C 3086.1591796875 2030.435791015625 3068.21875 2073.95751953125 3044.817626953125 2114.564697265625 L 2642.114501953125 2813.374267578125 C 2618.677001953125 2854.046142578125 2589.963134765625 2891.442626953125 2556.770751953125 2924.52490234375 C 2524.1201171875 2957.069091796875 2487.306396484375 2985.276611328125 2447.35400390625 3008.36376953125 C 2407.403076171875 3031.44970703125 2364.582763671875 3049.260498046875 2320.082763671875 3061.30078125 C 2274.84814453125 3073.53955078125 2228.11376953125 3079.745849609375 2181.177001953125 3079.7470703125 Z" stroke="none" fill="rgba(19,106,138,0.98)"/>
      </g>
    </g>
    <g transform="matrix(1, 0, 0, 1, -75, -35)" filter="url(#Union_1)">
      <g id="Union_1-2" data-name="Union 1" transform="translate(1412.11 1096.96)" fill="url(#linear-gradient-4)">
        <path d="M478.538,1356.343c-8.527-.433-17.147-1.089-25.62-1.95-8.415-.855-16.91-1.935-25.249-3.21-8.285-1.267-16.645-2.76-24.844-4.44-8.15-1.669-16.361-3.565-24.408-5.637-8-2.06-16.055-4.349-23.941-6.8-7.84-2.441-15.727-5.111-23.441-7.937-7.676-2.812-15.385-5.854-22.91-9.04-7.5-3.172-15.014-6.574-22.348-10.11-7.3-3.521-14.62-7.271-21.753-11.148-7.1-3.862-14.213-7.952-21.127-12.155-6.893-4.191-13.78-8.609-20.47-13.131-6.67-4.509-13.325-9.245-19.779-14.075-6.438-4.818-12.85-9.86-19.058-14.987s-12.356-10.456-18.306-15.867-11.838-11.029-17.52-16.716-11.3-11.584-16.7-17.532-10.741-12.116-15.856-18.318-10.16-12.626-14.978-19.071-9.558-13.117-14.065-19.792c-4.52-6.7-8.935-13.587-13.122-20.483-4.2-6.918-8.289-14.031-12.148-21.14-3.874-7.135-7.621-14.458-11.141-21.767-3.534-7.339-6.934-14.864-10.1-22.362-3.185-7.536-6.224-15.249-9.033-22.925-2.823-7.718-5.492-15.609-7.932-23.457-2.452-7.889-4.739-15.95-6.8-23.956-2.071-8.053-3.966-16.27-5.633-24.424-1.679-8.205-3.171-16.569-4.437-24.86C4.539,920.7,3.459,912.2,2.6,903.786c-.86-8.479-1.516-17.1-1.948-25.637C.221,869.55,0,860.81,0,852.17c0-4.425.058-8.9.173-13.337Q0,836.764,0,834.648V50A50,50,0,0,1,50,0H259.659a50,50,0,0,1,50,50V834.648c0,.77-.017,1.534-.052,2.3h.637c-.388,5.032-.585,10.155-.585,15.226,0,3.335.085,6.71.253,10.033.167,3.3.42,6.628.752,9.9a195.579,195.579,0,0,0,2.953,19.358c1.284,6.28,2.9,12.567,4.8,18.685,1.881,6.049,4.085,12.076,6.552,17.913,2.444,5.783,5.2,11.516,8.205,17.042,2.978,5.486,6.261,10.9,9.76,16.076,3.48,5.155,7.254,10.205,11.216,15.009s8.184,9.45,12.576,13.845,9.047,8.629,13.837,12.584,9.846,7.74,15,11.224c5.178,3.5,10.582,6.786,16.065,9.766,5.521,3,11.252,5.764,17.032,8.21,5.835,2.47,11.858,4.675,17.9,6.556,6.113,1.9,12.395,3.519,18.672,4.8a195.073,195.073,0,0,0,19.345,2.954c3.274.333,6.6.587,9.9.753,3.318.168,6.691.254,10.026.254s6.708-.085,10.027-.254c3.292-.167,6.621-.42,9.895-.753a195.131,195.131,0,0,0,19.346-2.954c6.278-1.285,12.56-2.9,18.672-4.8,6.043-1.881,12.065-4.087,17.9-6.556,5.78-2.446,11.51-5.208,17.032-8.21,5.482-2.98,10.886-6.266,16.065-9.766,5.153-3.484,10.2-7.26,15-11.224s9.444-8.188,13.837-12.584,8.622-9.052,12.575-13.845,7.736-9.854,11.217-15.009c3.5-5.18,6.781-10.589,9.76-16.076,3-5.526,5.76-11.26,8.2-17.042,2.467-5.837,4.672-11.864,6.552-17.913,1.9-6.116,3.516-12.4,4.8-18.685a195.586,195.586,0,0,0,2.952-19.358c.332-3.273.586-6.605.752-9.9.168-3.323.254-6.7.254-10.033,0-5.071-.2-10.193-.586-15.226h.638c-.034-.762-.052-1.526-.052-2.3V50a50,50,0,0,1,50-50H959a50,50,0,0,1,50,50V834.648q0,2.119-.173,4.193c.115,4.431.172,8.906.172,13.33,0,8.639-.221,17.379-.656,25.979-.432,8.531-1.088,17.157-1.948,25.637-.854,8.42-1.934,16.921-3.208,25.265-1.265,8.291-2.758,16.654-4.436,24.86-1.668,8.155-3.563,16.372-5.634,24.424-2.058,8.005-4.345,16.066-6.8,23.956-2.44,7.848-5.108,15.739-7.932,23.457-2.811,7.68-5.85,15.393-9.033,22.925-3.172,7.5-6.571,15.026-10.1,22.362-3.522,7.313-7.27,14.637-11.141,21.767-3.857,7.106-7.945,14.219-12.147,21.14-4.189,6.9-8.6,13.791-13.123,20.483-4.507,6.676-9.239,13.335-14.065,19.792s-9.856,12.862-14.977,19.071-10.449,12.363-15.857,18.318-11.023,11.848-16.7,17.532-11.578,11.31-17.521,16.716-12.108,10.749-18.306,15.867-12.619,10.168-19.058,14.987c-6.455,4.83-13.109,9.566-19.779,14.075-6.69,4.522-13.576,8.94-20.469,13.131-6.915,4.2-14.023,8.293-21.128,12.155-7.132,3.877-14.45,7.627-21.753,11.148-7.332,3.536-14.851,6.937-22.347,10.11-7.527,3.186-15.234,6.227-22.91,9.04-7.714,2.826-15.6,5.5-23.441,7.937-7.885,2.453-15.94,4.742-23.94,6.8-8.047,2.072-16.259,3.968-24.408,5.637-8.2,1.679-16.559,3.172-24.844,4.44-8.338,1.275-16.833,2.355-25.248,3.21-8.473.861-17.094,1.517-25.621,1.95-8.6.436-17.33.656-25.961.656S487.134,1356.779,478.538,1356.343Z" stroke="none"/>
        <path d="M 504.4994201660156 1346.999389648438 C 512.9623413085938 1346.999389648438 521.5274047851563 1346.783203125 529.95361328125 1346.356201171875 C 538.3134155273438 1345.931640625 546.76416015625 1345.28857421875 555.0714111328125 1344.444213867188 C 563.3192138671875 1343.606201171875 571.6458129882813 1342.547485351563 579.8181762695313 1341.297485351563 C 587.9385375976563 1340.0556640625 596.1312255859375 1338.592407226563 604.1685180664063 1336.9462890625 C 612.1552124023438 1335.310913085938 620.202880859375 1333.452392578125 628.0886840820313 1331.422119140625 C 635.9290771484375 1329.403198242188 643.8236083984375 1327.160034179688 651.5501708984375 1324.756103515625 C 659.2343139648438 1322.363891601563 666.9638061523438 1319.746826171875 674.5234375 1316.977294921875 C 682.0459594726563 1314.22119140625 689.5997924804688 1311.240844726563 696.9766845703125 1308.118041992188 C 704.3230590820313 1305.008911132813 711.69140625 1301.676025390625 718.878173828125 1298.210083007813 C 726.0352172851563 1294.75927734375 733.2081298828125 1291.083862304688 740.1981811523438 1287.283569335938 C 747.1621704101563 1283.498046875 754.1295776367188 1279.488647460938 760.90576171875 1275.369750976563 C 767.66162109375 1271.261352539063 774.412353515625 1266.931640625 780.9697875976563 1262.498413085938 C 787.5079956054688 1258.078369140625 794.0310668945313 1253.436279296875 800.3583374023438 1248.701293945313 C 806.6707153320313 1243.977905273438 812.95654296875 1239.034790039063 819.0407104492188 1234.01025390625 C 825.11669921875 1228.992919921875 831.1539916992188 1223.76025390625 836.9857788085938 1218.4560546875 C 842.8121337890625 1213.157104492188 848.5912475585938 1207.643920898438 854.1619873046875 1202.0693359375 C 859.7308959960938 1196.497192382813 865.24072265625 1190.713745117188 870.536865234375 1184.882934570313 C 875.8385009765625 1179.0458984375 881.0687255859375 1173.00390625 886.0816040039063 1166.925903320313 C 891.1016235351563 1160.83935546875 896.0414428710938 1154.548828125 900.7632446289063 1148.23095703125 C 905.4937744140625 1141.90185546875 910.13232421875 1135.374389648438 914.5503540039063 1128.830810546875 C 918.9790649414063 1122.270385742188 923.3070678710938 1115.515502929688 927.4134521484375 1108.752563476563 C 931.5323486328125 1101.968994140625 935.5390625 1094.99755859375 939.3201293945313 1088.031494140625 C 943.1143188476563 1081.04248046875 946.788330078125 1073.863525390625 950.2398071289063 1066.697021484375 C 953.7021484375 1059.506103515625 957.0339965820313 1052.132202148438 960.1421508789063 1044.779907226563 C 963.2621459960938 1037.397705078125 966.2409057617188 1029.837890625 968.9952392578125 1022.312438964844 C 971.7623291015625 1014.748596191406 974.3778076171875 1007.014404296875 976.7688598632813 999.3231201171875 C 979.17236328125 991.5902099609375 981.4136352539063 983.6907958984375 983.430908203125 975.8444213867188 C 985.4605102539063 967.9525756835938 987.3181762695313 959.8997192382813 988.9525146484375 951.9078979492188 C 990.5966796875 943.86572265625 992.0601806640625 935.668212890625 993.300537109375 927.5413208007813 C 994.5498046875 919.3626098632813 995.6083374023438 911.03076171875 996.4456176757813 902.7769775390625 C 997.2890625 894.4629516601563 997.9323120117188 886.0069580078125 998.3555908203125 877.6429443359375 C 998.7828979492188 869.2109375 998.9990844726563 860.641357421875 998.9990844726563 852.17041015625 C 998.9990844726563 847.832763671875 998.9423217773438 843.4447631835938 998.8299560546875 839.09912109375 L 998.8159790039063 838.5557250976563 L 998.8609008789063 838.0138549804688 C 998.9530639648438 836.9038696289063 999 835.7820434570313 999 834.6482543945313 L 999 50.00042343139648 C 999 27.94405937194824 981.0559692382813 10.0000581741333 958.9996337890625 10.0000581741333 L 749.3399658203125 10.0000581741333 C 727.2841796875 10.0000581741333 709.3405151367188 27.94405937194824 709.3405151367188 50.00042343139648 L 709.3405151367188 834.6482543945313 L 709.3821411132813 836.4913330078125 L 709.238525390625 845.6658935546875 C 709.306396484375 847.8364868164063 709.3405151367188 850.0079345703125 709.3405151367188 852.17041015625 C 709.3405151367188 855.674072265625 709.2506713867188 859.2191772460938 709.073974609375 862.708251953125 C 708.8988647460938 866.1729736328125 708.63232421875 869.6748046875 708.2832641601563 873.1153564453125 C 707.5908813476563 879.9346313476563 706.5466918945313 886.7820434570313 705.179443359375 893.4678955078125 C 703.8279418945313 900.073486328125 702.1292724609375 906.6842651367188 700.130126953125 913.1165771484375 C 698.1547241210938 919.4720458984375 695.836669921875 925.8096923828125 693.2396240234375 931.9549560546875 C 690.6685180664063 938.0369873046875 687.7659912109375 944.0658569335938 684.6128540039063 949.8746337890625 C 681.4812622070313 955.6427612304688 678.0294189453125 961.3289794921875 674.3529052734375 966.7745971679688 C 670.693603515625 972.1951293945313 666.7266845703125 977.5033569335938 662.5626831054688 982.551513671875 C 658.4061279296875 987.5907592773438 653.9595947265625 992.4864501953125 649.3466796875 997.10205078125 C 644.7290649414063 1001.722778320313 639.836181640625 1006.172607421875 634.8043212890625 1010.327697753906 C 629.7576293945313 1014.495361328125 624.4530639648438 1018.464782714844 619.0370483398438 1022.126037597656 C 613.5908813476563 1025.80712890625 607.90869140625 1029.261352539063 602.1483154296875 1032.392822265625 C 596.3441772460938 1035.5478515625 590.3185424804688 1038.452392578125 584.2379760742188 1041.026000976563 C 578.1014404296875 1043.622924804688 571.7673950195313 1045.942993164063 565.4118041992188 1047.92138671875 C 558.9818115234375 1049.922729492188 552.3743286132813 1051.622802734375 545.7734375 1052.973999023438 C 539.086669921875 1054.343383789063 532.2424926757813 1055.38818359375 525.4334106445313 1056.079711914063 C 521.9923095703125 1056.429931640625 518.4924926757813 1056.69677734375 515.0325317382813 1056.871826171875 C 511.5457763671875 1057.048461914063 508.0023193359375 1057.13818359375 504.4994201660156 1057.13818359375 C 500.9967041015625 1057.13818359375 497.4530639648438 1057.048461914063 493.9681396484375 1056.871826171875 C 490.5074157714844 1056.69677734375 487.0077819824219 1056.429931640625 483.5675964355469 1056.080078125 C 476.7557983398438 1055.38818359375 469.9119567871094 1054.343139648438 463.2268676757813 1052.974243164063 C 456.6256103515625 1051.622802734375 450.0181579589844 1049.922729492188 443.5879821777344 1047.92138671875 C 437.2288818359375 1045.94189453125 430.8946838378906 1043.621826171875 424.7614135742188 1041.02587890625 C 418.6814270019531 1038.452392578125 412.6557922363281 1035.5478515625 406.8521423339844 1032.392944335938 C 401.0905151367188 1029.261474609375 395.407958984375 1025.807006835938 389.962158203125 1022.12548828125 C 384.546875 1018.464782714844 379.2423400878906 1014.495361328125 374.1965026855469 1010.32861328125 C 369.1696166992188 1006.17822265625 364.2765197753906 1001.728210449219 359.6535949707031 997.1024169921875 C 355.0414123535156 992.4874877929688 350.5946960449219 987.592041015625 346.435791015625 982.55078125 C 342.2710571289063 977.5006103515625 338.3046875 972.1928100585938 334.6476135253906 966.7756958007813 C 330.9728698730469 961.3336791992188 327.5205078125 955.6471557617188 324.3874206542969 949.8753051757813 C 321.2343444824219 944.068603515625 318.3314208984375 938.039306640625 315.7590637207031 931.9544067382813 C 313.167236328125 925.8220825195313 310.8490600585938 919.484619140625 308.8683471679688 913.1151733398438 C 306.8686828613281 906.6785888671875 305.1703186035156 900.0680541992188 303.8203430175781 893.4671630859375 C 302.4519653320313 886.7762451171875 301.4074096679688 879.9287719726563 300.7157897949219 873.1144409179688 C 300.3668823242188 869.6753540039063 300.10107421875 866.1746215820313 299.925048828125 862.709716796875 C 299.7483215332031 859.2191772460938 299.659423828125 855.674072265625 299.659423828125 852.17041015625 C 299.659423828125 850.4324340820313 299.6814880371094 848.6885375976563 299.725341796875 846.9442138671875 L 299.1463317871094 846.9442138671875 L 299.6177978515625 836.4937133789063 L 299.659423828125 834.6482543945313 L 299.659423828125 50.00042343139648 C 299.659423828125 27.94405937194824 281.7154235839844 10.0000581741333 259.6590576171875 10.0000581741333 L 50.00033187866211 10.0000581741333 C 27.9439697265625 10.0000581741333 9.999969482421875 27.94405937194824 9.999969482421875 50.00042343139648 L 9.999969482421875 834.6482543945313 C 9.999969482421875 835.7791748046875 10.04669666290283 836.8997192382813 10.13851451873779 838.0067749023438 L 10.18342399597168 838.5482177734375 L 10.16942405700684 839.0914916992188 C 10.0568790435791 843.4407958984375 9.999969482421875 847.8316650390625 9.999969482421875 852.17041015625 C 9.999969482421875 860.6420288085938 10.21615123748779 869.211669921875 10.64324188232422 877.6422119140625 C 11.06778812408447 886.0076904296875 11.70996952056885 894.4640502929688 12.5536060333252 902.7769775390625 C 13.39069652557373 911.0291748046875 14.44942378997803 919.3604125976563 15.69833278656006 927.5411376953125 C 16.93960571289063 935.6671752929688 18.40215110778809 943.8646240234375 20.04760551452637 951.9082641601563 C 21.68106079101563 959.8995361328125 23.5386962890625 967.9522705078125 25.56833267211914 975.8451538085938 C 27.58560562133789 983.69189453125 29.82760620117188 991.5916748046875 32.2299690246582 999.3224487304688 C 34.62142562866211 1007.014221191406 37.23669815063477 1014.748413085938 40.00360488891602 1022.3115234375 C 42.75669860839844 1029.834594726563 45.73542404174805 1037.39404296875 48.85688018798828 1044.779296875 C 51.96360397338867 1052.129028320313 55.29524230957031 1059.503173828125 58.75887680053711 1066.696044921875 C 62.20887756347656 1073.85986328125 65.88214874267578 1081.037719726563 69.67924499511719 1088.03173828125 C 73.46142578125 1094.99951171875 77.46706390380859 1101.970581054688 81.58651733398438 1108.752807617188 C 85.69051361083984 1115.512451171875 90.01869964599609 1122.267333984375 94.44851684570313 1128.830078125 C 98.86669921875 1135.373657226563 103.5054244995117 1141.9013671875 108.2352447509766 1148.23046875 C 112.9579696655273 1154.548095703125 117.8968811035156 1160.838623046875 122.9183349609375 1166.926025390625 C 127.9323348999023 1173.005737304688 133.1614227294922 1179.04736328125 138.46142578125 1184.882202148438 C 143.7588806152344 1190.713134765625 149.2688751220703 1196.496948242188 154.8381500244141 1202.069458007813 C 160.4088745117188 1207.64404296875 166.1879730224609 1213.157348632813 172.0130615234375 1218.455688476563 C 177.8457946777344 1223.760009765625 183.8834228515625 1228.9931640625 189.9583282470703 1234.01025390625 C 196.0441436767578 1239.035522460938 202.3303375244141 1243.97900390625 208.6408843994141 1248.701293945313 C 214.9679718017578 1253.436279296875 221.4912414550781 1258.078369140625 228.0294189453125 1262.498657226563 C 234.5865173339844 1266.931518554688 241.3370666503906 1271.261108398438 248.0930633544922 1275.369018554688 C 254.8697814941406 1279.48876953125 261.8370666503906 1283.498046875 268.8008728027344 1287.283569335938 C 275.7915954589844 1291.083740234375 282.9646911621094 1294.75927734375 290.1210632324219 1298.210083007813 C 297.3086853027344 1301.675659179688 304.6774291992188 1305.009643554688 312.0246887207031 1308.118774414063 C 319.3990478515625 1311.240966796875 326.9532470703125 1314.22119140625 334.4747009277344 1316.977172851563 C 342.0359802246094 1319.746826171875 349.7655944824219 1322.363891601563 357.4474182128906 1324.755493164063 C 365.1761474609375 1327.160034179688 373.0707092285156 1329.403198242188 380.910888671875 1331.422119140625 C 388.7970581054688 1333.452392578125 396.8446960449219 1335.310913085938 404.8323364257813 1336.946411132813 C 412.8677978515625 1338.592407226563 421.0605163574219 1340.0556640625 429.1810607910156 1341.297485351563 C 437.3541564941406 1342.547485351563 445.6806945800781 1343.606201171875 453.9290466308594 1344.444213867188 C 462.2357788085938 1345.28857421875 470.6863403320313 1345.931640625 479.0441589355469 1346.356079101563 C 487.4723205566406 1346.783203125 496.0366821289063 1346.999389648438 504.4994201660156 1346.999389648438 M 504.4994201660156 1356.999389648438 C 495.8684997558594 1356.999389648438 487.1339721679688 1356.77880859375 478.5381469726563 1356.343383789063 C 470.0114135742188 1355.910278320313 461.3912353515625 1355.254272460938 452.9177856445313 1354.392944335938 C 444.5028686523438 1353.5380859375 436.0077819824219 1352.457885742188 427.6692504882813 1351.1826171875 C 419.3837890625 1349.91552734375 411.0245056152344 1348.42236328125 402.8255920410156 1346.742919921875 C 394.6761474609375 1345.074462890625 386.4645080566406 1343.178100585938 378.4176025390625 1341.106201171875 C 370.4176025390625 1339.046264648438 362.3625183105469 1336.757568359375 354.4766845703125 1334.304077148438 C 346.6368713378906 1331.86328125 338.7501525878906 1329.192993164063 331.0352478027344 1326.366943359375 C 323.3592529296875 1323.554443359375 315.6506958007813 1320.513305664063 308.1257934570313 1317.327270507813 C 300.6307067871094 1314.155639648438 293.1119689941406 1310.75390625 285.7779846191406 1307.217651367188 C 278.4761657714844 1303.69677734375 271.1574096679688 1299.946655273438 264.0248718261719 1296.0693359375 C 256.9203186035156 1292.207275390625 249.8121490478516 1288.116943359375 242.8983306884766 1283.913818359375 C 236.0052490234375 1279.72265625 229.1183319091797 1275.305541992188 222.4286956787109 1270.782958984375 C 215.7588806152344 1266.27392578125 209.1041564941406 1261.5380859375 202.6494293212891 1256.707885742188 C 196.2117919921875 1251.890258789063 189.7992401123047 1246.847534179688 183.591064453125 1241.72119140625 C 177.3936004638672 1236.602783203125 171.2348785400391 1231.264770507813 165.2850646972656 1225.85400390625 C 159.3423309326172 1220.448608398438 153.4472351074219 1214.824584960938 147.7646942138672 1209.13818359375 C 142.0839691162109 1203.4541015625 136.4634246826172 1197.554443359375 131.0597839355469 1191.6064453125 C 125.6526947021484 1185.653686523438 120.3183364868164 1179.490478515625 115.2036056518555 1173.28857421875 C 110.081787109375 1167.079467773438 105.0434265136719 1160.662475585938 100.2257843017578 1154.217651367188 C 95.39997100830078 1147.76025390625 90.66778564453125 1141.101196289063 86.16069793701172 1134.425903320313 C 81.64087677001953 1127.729736328125 77.22542572021484 1120.83837890625 73.0386962890625 1113.942626953125 C 68.83651733398438 1107.024291992188 64.74960327148438 1099.911743164063 60.8905143737793 1092.802368164063 C 57.01688003540039 1085.667358398438 53.26924133300781 1078.344116210938 49.74924087524414 1071.03515625 C 46.21506118774414 1063.695678710938 42.81578826904297 1056.171752929688 39.64596939086914 1048.672729492188 C 36.46088027954102 1041.13720703125 33.42160415649414 1033.424072265625 30.61269760131836 1025.748046875 C 27.78924179077148 1018.030578613281 25.12087821960449 1010.139343261719 22.68087768554688 1002.291320800781 C 20.2292423248291 994.40185546875 17.94160652160645 986.3414916992188 15.8832426071167 978.3351440429688 C 13.81233310699463 970.2818603515625 11.91687870025635 962.06494140625 10.25015163421631 953.9109497070313 C 8.571605682373047 945.7056884765625 7.079423904418945 937.3418579101563 5.813060283660889 929.0511474609375 C 4.538696765899658 920.70458984375 3.458696842193604 912.2049560546875 2.604696750640869 903.7862548828125 C 1.74415135383606 895.3074951171875 1.089060425758362 886.681884765625 0.656151294708252 878.1489868164063 C 0.2205149382352829 869.5502319335938 -3.0517578125e-05 860.8104248046875 -3.0517578125e-05 852.17041015625 C -3.0517578125e-05 847.745849609375 0.05796948075294495 843.2682495117188 0.1726967543363571 838.8329467773438 C 0.05833311751484871 837.4534912109375 -3.0517578125e-05 836.0573120117188 -3.0517578125e-05 834.6482543945313 L -3.0517578125e-05 50.00042343139648 C -3.0517578125e-05 22.38569450378418 22.38578796386719 5.846058411407284e-05 50.00033187866211 5.846058411407284e-05 L 259.6590576171875 5.846058411407284e-05 C 287.2737731933594 5.846058411407284e-05 309.659423828125 22.38569450378418 309.659423828125 50.00042343139648 L 309.659423828125 834.6482543945313 C 309.659423828125 835.4185791015625 309.6419677734375 836.1824340820313 309.6076049804688 836.9442138671875 L 310.2445068359375 836.9442138671875 C 309.8565063476563 841.97607421875 309.659423828125 847.0989379882813 309.659423828125 852.17041015625 C 309.659423828125 855.505859375 309.7439575195313 858.8807983398438 309.9123229980469 862.2036743164063 C 310.0797729492188 865.500244140625 310.3327026367188 868.83203125 310.6647033691406 872.1053466796875 C 311.3226928710938 878.587158203125 312.316162109375 885.0996704101563 313.6176147460938 891.4635009765625 C 314.9019775390625 897.7437133789063 316.5174255371094 904.0302124023438 318.4181518554688 910.1484375 C 320.2992553710938 916.1973266601563 322.5032348632813 922.224609375 324.9701538085938 928.0611572265625 C 327.4147033691406 933.8436889648438 330.1748657226563 939.5775146484375 333.1754150390625 945.103515625 C 336.1535949707031 950.5899047851563 339.4368896484375 955.9989624023438 342.93505859375 961.1793212890625 C 346.4154357910156 966.3345947265625 350.1890563964844 971.3843994140625 354.15087890625 976.1885986328125 C 358.1037902832031 980.980224609375 362.3345031738281 985.6386108398438 366.7266845703125 990.0333251953125 C 371.1186828613281 994.4280395507813 375.7734375 998.66259765625 380.563232421875 1002.617126464844 C 385.3628845214844 1006.580810546875 390.4092407226563 1010.357177734375 395.5626831054688 1013.840942382813 C 400.7403259277344 1017.341125488281 406.1448669433594 1020.626953125 411.6275939941406 1023.606994628906 C 417.1490478515625 1026.6083984375 422.8794250488281 1029.370361328125 428.6592407226563 1031.816772460938 C 434.4939575195313 1034.286376953125 440.5176086425781 1036.4921875 446.5601501464844 1038.373168945313 C 452.6730651855469 1040.27587890625 458.9550476074219 1041.892211914063 465.2325134277344 1043.177368164063 C 471.5919799804688 1044.479736328125 478.1007080078125 1045.473388671875 484.5779724121094 1046.131103515625 C 487.8521423339844 1046.464233398438 491.1812438964844 1046.718017578125 494.4734191894531 1046.884643554688 C 497.7917785644531 1047.052734375 501.1650695800781 1047.13818359375 504.4994201660156 1047.13818359375 C 507.833984375 1047.13818359375 511.2072448730469 1047.052734375 514.5264892578125 1046.884643554688 C 517.8185424804688 1046.718017578125 521.1477661132813 1046.464233398438 524.4210815429688 1046.131103515625 C 530.8983154296875 1045.473388671875 537.4070434570313 1044.479736328125 543.7673950195313 1043.177368164063 C 550.0448608398438 1041.892211914063 556.326904296875 1040.27587890625 562.4397583007813 1038.373168945313 C 568.4823608398438 1036.4921875 574.5050659179688 1034.286376953125 580.3406982421875 1031.816772460938 C 586.1205444335938 1029.370361328125 591.8508911132813 1026.6083984375 597.372314453125 1023.606994628906 C 602.8541259765625 1020.626953125 608.2586669921875 1017.341125488281 613.437255859375 1013.840942382813 C 618.5906982421875 1010.357177734375 623.6370849609375 1006.580810546875 628.4367065429688 1002.617126464844 C 633.2255859375 998.66259765625 637.8804931640625 994.428955078125 642.2732543945313 990.0333251953125 C 646.6644897460938 985.6395263671875 650.895263671875 980.9811401367188 654.84814453125 976.1885986328125 C 658.8108520507813 971.3843994140625 662.5845336914063 966.3345947265625 666.0648803710938 961.1793212890625 C 669.5621337890625 955.9989624023438 672.8453979492188 950.5907592773438 675.8243408203125 945.103515625 C 678.8241577148438 939.5775146484375 681.5843505859375 933.8436889648438 684.0288696289063 928.0611572265625 C 686.4957885742188 922.2236938476563 688.70068359375 916.1973266601563 690.5808715820313 910.1484375 C 692.4816284179688 904.0320434570313 694.0970458984375 897.7454833984375 695.38232421875 891.4635009765625 C 696.6837768554688 885.0996704101563 697.6763305664063 878.587158203125 698.3343505859375 872.1053466796875 C 698.66650390625 868.83203125 698.920166015625 865.500244140625 699.086669921875 862.2036743164063 C 699.2550659179688 858.8807983398438 699.3405151367188 855.505859375 699.3405151367188 852.17041015625 C 699.3405151367188 847.099853515625 699.1434326171875 841.9769897460938 698.7546997070313 836.9442138671875 L 699.392333984375 836.9442138671875 C 699.3577880859375 836.1824340820313 699.3405151367188 835.4185791015625 699.3405151367188 834.6482543945313 L 699.3405151367188 50.00042343139648 C 699.3405151367188 22.38569450378418 721.7261352539063 5.846058411407284e-05 749.3399658203125 5.846058411407284e-05 L 958.9996337890625 5.846058411407284e-05 C 986.6141357421875 5.846058411407284e-05 1009 22.38569450378418 1009 50.00042343139648 L 1009 834.6482543945313 C 1009 836.0606079101563 1008.94140625 837.4580688476563 1008.826721191406 838.8407592773438 C 1008.941223144531 843.272216796875 1008.999084472656 847.7469482421875 1008.999084472656 852.17041015625 C 1008.999084472656 860.8095092773438 1008.778503417969 869.5494995117188 1008.342895507813 878.1489868164063 C 1007.911071777344 886.6800537109375 1007.2548828125 895.3057250976563 1006.39453125 903.7862548828125 C 1005.540344238281 912.206787109375 1004.460327148438 920.7071533203125 1003.185974121094 929.0511474609375 C 1001.920532226563 937.3418579101563 1000.427429199219 945.7056884765625 998.7498168945313 953.9109497070313 C 997.0821533203125 962.0658569335938 995.1867065429688 970.2827758789063 993.1157836914063 978.3351440429688 C 991.0576171875 986.340576171875 988.7706909179688 994.4009399414063 986.3181762695313 1002.291320800781 C 983.8783569335938 1010.139343261719 981.2097778320313 1018.030578613281 978.3865356445313 1025.748046875 C 975.5758056640625 1033.427734375 972.5364990234375 1041.140747070313 969.353271484375 1048.672729492188 C 966.1815795898438 1056.175170898438 962.7823486328125 1063.698364257813 959.2498168945313 1071.03515625 C 955.7279663085938 1078.34765625 951.9796142578125 1085.671875 948.1087036132813 1092.802368164063 C 944.251220703125 1099.908935546875 940.1634521484375 1107.021728515625 935.9612426757813 1113.942626953125 C 931.7717895507813 1120.842041015625 927.3565063476563 1127.733276367188 922.8385009765625 1134.425903320313 C 918.3312377929688 1141.101928710938 913.5990600585938 1147.760986328125 908.7732543945313 1154.217651367188 C 903.95654296875 1160.662475585938 898.917236328125 1167.079467773438 893.7963256835938 1173.28857421875 C 888.6824951171875 1179.48876953125 883.347412109375 1185.652099609375 877.9392700195313 1191.6064453125 C 872.5364990234375 1197.554443359375 866.9159545898438 1203.4541015625 861.2352294921875 1209.13818359375 C 855.5526733398438 1214.824584960938 849.6575927734375 1220.448608398438 843.7141723632813 1225.85400390625 C 837.7650756835938 1231.264770507813 831.6063232421875 1236.602783203125 825.407958984375 1241.72119140625 C 819.2015991210938 1246.846557617188 812.7890625 1251.889282226563 806.349609375 1256.707885742188 C 799.8948974609375 1261.5380859375 793.2403564453125 1266.27392578125 786.5703125 1270.782958984375 C 779.8806762695313 1275.305541992188 772.9937744140625 1279.72265625 766.1016235351563 1283.913818359375 C 759.1868896484375 1288.116943359375 752.0786743164063 1292.207275390625 744.97412109375 1296.0693359375 C 737.842529296875 1299.946655273438 730.5238037109375 1303.69677734375 723.2210693359375 1307.217651367188 C 715.8888549804688 1310.75390625 708.370361328125 1314.15478515625 700.8741455078125 1317.327270507813 C 693.347412109375 1320.513305664063 685.6397705078125 1323.554443359375 677.9638061523438 1326.366943359375 C 670.2498168945313 1329.192993164063 662.363037109375 1331.86328125 654.5223388671875 1334.304077148438 C 646.637451171875 1336.757568359375 638.5823364257813 1339.046264648438 630.5823364257813 1341.106201171875 C 622.535400390625 1343.178100585938 614.3237915039063 1345.074462890625 606.17431640625 1346.742919921875 C 597.9744873046875 1348.42236328125 589.615234375 1349.91552734375 581.3297729492188 1351.1826171875 C 572.9921264648438 1352.457885742188 564.4970703125 1353.5380859375 556.0821533203125 1354.392944335938 C 547.6087036132813 1355.254272460938 538.9883422851563 1355.910278320313 530.4608764648438 1356.343383789063 C 521.865966796875 1356.77880859375 513.1304931640625 1356.999389648438 504.4994201660156 1356.999389648438 Z" stroke="none" fill="rgba(112,112,112,0.03)"/>
      </g>
    </g>
    <g transform="matrix(1, 0, 0, 1, -75, -35)" filter="url(#w1)">
      <path id="w1-2" data-name="w1" d="M0,651.231H0V0H.345c.077,7.465.278,14.694.6,21.486.311,6.631.744,13.036,1.286,19.036.528,5.85,1.176,11.485,1.925,16.749C4.882,62.393,5.728,67.314,6.668,71.9c.913,4.448,1.941,8.708,3.057,12.661,1.08,3.829,2.274,7.483,3.548,10.861,1.231,3.262,2.573,6.365,3.991,9.222a79.05,79.05,0,0,0,4.384,7.747c12.172,18.834,28.01,23.655,43.326,28.317h0c2.851.868,5.8,1.765,8.641,2.734a89.446,89.446,0,0,1,8.356,3.271,54.75,54.75,0,0,1,7.894,4.377c1.294.871,2.545,1.807,3.72,2.782a45.279,45.279,0,0,1,3.54,3.272,47.041,47.041,0,0,1,3.338,3.834,51.86,51.86,0,0,1,3.114,4.467c1.009,1.619,1.974,3.359,2.869,5.171.921,1.866,1.8,3.867,2.6,5.947.827,2.138,1.606,4.424,2.314,6.795.726,2.431,1.4,5.026,2,7.713.618,2.749,1.18,5.677,1.672,8.7.5,3.09.946,6.375,1.319,9.764.421,3.827.96,7.44,1.6,10.739a87.159,87.159,0,0,0,2.213,8.971,56.627,56.627,0,0,0,2.781,7.306,37.148,37.148,0,0,0,3.307,5.746,25.849,25.849,0,0,0,3.789,4.288,20.435,20.435,0,0,0,4.228,2.935A19.485,19.485,0,0,0,138.9,251.2a22.477,22.477,0,0,0,4.978.539,30.887,30.887,0,0,0,6.69-.788,47.65,47.65,0,0,0,7.095-2.227,74.113,74.113,0,0,0,7.416-3.461c2.425-1.288,5-2.8,7.651-4.489,4.782-3.049,9.907-6.725,15.669-11.24,4.566-3.578,9.521-7.673,15.592-12.886,3.212-2.758,6.385-5.525,9.454-8.2,16.542-14.428,30.829-26.889,38.533-26.889a5.64,5.64,0,0,1,1.957.325,4.586,4.586,0,0,1,1.6,1.008,6.129,6.129,0,0,1,1.245,1.78,11.313,11.313,0,0,1,.833,2.592,22.366,22.366,0,0,1,.4,3.457,42.312,42.312,0,0,1-.054,4.373,54.312,54.312,0,0,1-.882,6.972,62.825,62.825,0,0,1-1.781,7.009c-.726,2.305-1.61,4.677-2.628,7.05-.994,2.318-2.145,4.7-3.421,7.095-1.244,2.33-2.644,4.733-4.161,7.143-1.475,2.342-3.106,4.763-4.848,7.194-1.687,2.355-3.532,4.795-5.482,7.25-1.883,2.371-3.923,4.83-6.063,7.309-4.067,4.711-8.534,9.556-13.657,14.811-4.583,4.7-9.6,9.638-15.343,15.092-10.7,10.163-22.039,20.356-34.047,31.147-18.942,17.024-38.529,34.627-56.526,53.053-4.651,4.762-9.078,9.462-13.156,13.97-4.376,4.837-8.525,9.642-12.33,14.283C79.6,399.4,75.8,404.315,72.35,409.086c-3.632,5.021-7,10.052-10.024,14.955-13.589,22.063-23.56,38.759-31.272,53.8-4.015,7.829-7.322,15.03-10.111,22.013a198.25,198.25,0,0,0-7.282,21.762c-3.9,14.368-6.568,30.34-8.642,51.787-.939,9.715-1.779,20.688-2.642,34.533C1.529,621.539.734,636.78,0,651.224Z" transform="translate(1412.11 1159.79)" stroke="rgba(112,112,112,0.06)" stroke-width="10" fill="url(#linear-gradient-5)"/>
    </g>
    <g transform="matrix(1, 0, 0, 1, -75, -35)" filter="url(#w2)">
      <path id="w2-2" data-name="w2" d="M89.3,498.137h0c-16.8,0-31.834-4.157-44.677-12.354a77.345,77.345,0,0,1-8.8-6.553,82.114,82.114,0,0,1-7.85-7.749,89.932,89.932,0,0,1-6.89-8.849,100.5,100.5,0,0,1-5.926-9.855c-1.646-3.124-3.185-6.428-4.575-9.821-1.379-3.367-2.644-6.9-3.76-10.511-1.109-3.585-2.1-7.329-2.941-11.128-.839-3.782-1.552-7.71-2.119-11.673S.758,401.6.466,397.5.018,389.177,0,384.956s.108-8.556.368-12.869.666-8.742,1.2-13.122c.54-4.4,1.228-8.877,2.044-13.3.821-4.454,1.792-8.966,2.887-13.41,1.1-4.483,2.36-9.006,3.733-13.444,1.388-4.485,2.93-9,4.583-13.406a241.947,241.947,0,0,1,26.9-51.785c2.945-4.3,5.963-8.585,8.97-12.741,2.854-3.944,5.79-7.9,8.728-11.754,5.392-7.076,10.875-13.942,16.76-20.991,10.872-13.022,21.067-24.2,30.926-35.013l0,0C145.636,130.871,176.062,97.505,203.14.8l.045-.16L203.363,0V356.689h-.224v.005c0,.223.037,2.276-.084,5.654-.118,3.294-.41,8.57-1.132,15a212.7,212.7,0,0,1-3.5,21.385c-.9,4.131-1.925,8.222-3.053,12.159-1.241,4.333-2.634,8.587-4.141,12.644-1.638,4.411-3.453,8.7-5.395,12.758a133.129,133.129,0,0,1-6.813,12.5,116.182,116.182,0,0,1-8.4,11.875c-1.557,1.926-3.187,3.806-4.844,5.586-1.706,1.833-3.49,3.613-5.3,5.291-1.863,1.725-3.808,3.39-5.781,4.949-2.025,1.6-4.138,3.135-6.28,4.561-2.2,1.462-4.484,2.851-6.8,4.127-2.374,1.308-4.844,2.535-7.34,3.646-2.558,1.138-5.216,2.188-7.9,3.119-2.747.953-5.6,1.809-8.484,2.545-2.945.753-6,1.4-9.086,1.926-3.151.537-6.417.961-9.709,1.26C95.786,497.984,92.491,498.137,89.3,498.137Z" transform="translate(1516.54 1526.45)" stroke="rgba(108,108,108,0.05)" stroke-width="10" fill="url(#linear-gradient-6)"/>
    </g>
    <path id="w3-2" data-name="w3" d="M0,497.639H0V467.13c.058-.71.12-1.431.184-2.144C.15,479.4.088,490.385,0,497.639Zm.184-32.658h0C.263,431.8.2,380,0,311.01V125.984C1.754,150.59,6.329,169.335,13.6,181.7c.863,1.468,1.776,2.864,2.714,4.148a41.168,41.168,0,0,0,2.908,3.559,34.578,34.578,0,0,0,3.092,2.981A30.039,30.039,0,0,0,25.58,194.8a27.339,27.339,0,0,0,3.432,1.858,26.306,26.306,0,0,0,3.589,1.314,26.815,26.815,0,0,0,3.735.78,28.873,28.873,0,0,0,3.872.258c14.239,0,31.356-10.052,49.5-29.07a262.18,262.18,0,0,0,26.6-33.481,416.088,416.088,0,0,0,25.661-43.572c2.132-4.149,4.352-8.237,6.6-12.15,2.2-3.83,4.485-7.6,6.792-11.192,2.256-3.517,4.594-6.968,6.949-10.258,2.3-3.215,4.681-6.36,7.071-9.348,2.337-2.921,4.745-5.768,7.159-8.462,2.36-2.634,4.786-5.191,7.211-7.6,2.371-2.355,4.8-4.63,7.229-6.762,2.371-2.083,4.8-4.085,7.212-5.948A112.3,112.3,0,0,1,226.174,5.036,79.4,79.4,0,0,1,239.16,1.227,61.545,61.545,0,0,1,251.1,0a44.475,44.475,0,0,1,14.5,2.274,34.094,34.094,0,0,1,6.03,2.742,29.6,29.6,0,0,1,5.086,3.723,26.97,26.97,0,0,1,7.126,10.571,32.452,32.452,0,0,1,1.776,13.911,30.022,30.022,0,0,1-.8,4.83,42.382,42.382,0,0,1-1.64,5.134c-.671,1.733-1.491,3.559-2.436,5.427-.924,1.826-2,3.747-3.185,5.709-1.161,1.915-2.469,3.927-3.887,5.98-1.381,2-2.909,4.1-4.542,6.239-3.108,4.076-6.764,8.52-10.864,13.211-3.84,4.392-8.068,9.009-12.925,14.114-4.35,4.572-9.129,9.454-14.612,14.927-10.221,10.2-21.183,20.759-32.789,31.935-10.7,10.3-21.755,20.949-32.723,31.805-5.923,5.862-11.267,11.237-16.34,16.432-5.721,5.859-10.928,11.318-15.919,16.688-5.384,5.792-10.5,11.468-15.194,16.871-5.048,5.805-9.814,11.518-14.164,16.98-4.622,5.8-8.938,11.529-12.829,17.017-4.1,5.784-7.866,11.5-11.19,16.98-6.425,10.6-11.968,19.889-16.946,28.407-5.568,9.528-10.444,18.109-14.9,26.233-4.8,8.741-9.013,16.758-12.881,24.508-1.993,3.993-3.906,7.945-5.687,11.747-1.82,3.885-3.566,7.749-5.188,11.483-1.651,3.8-3.23,7.6-4.691,11.276-1.484,3.738-2.9,7.481-4.2,11.125-1.318,3.692-2.564,7.4-3.7,11.029-1.153,3.666-2.234,7.364-3.213,10.99-.989,3.66-1.906,7.363-2.725,11.007-.825,3.67-1.579,7.4-2.239,11.079-.664,3.7-1.254,7.472-1.755,11.208S.527,461.173.185,464.981Z" transform="translate(1644.904 1320.146)" stroke="rgba(0,0,0,0.06)" stroke-width="10" fill="url(#linear-gradient-7)"/>
    <g transform="matrix(1, 0, 0, 1, -75, -35)" filter="url(#w4)">
      <path id="w4-2" data-name="w4" d="M314.177,306.53c-8.614,0-17.326-.22-25.894-.655-8.5-.431-17.1-1.084-25.553-1.943-8.4-.853-16.868-1.93-25.181-3.2-8.256-1.261-16.592-2.75-24.778-4.425-8.115-1.661-16.305-3.551-24.343-5.618-7.986-2.055-16.02-4.336-23.877-6.78-7.828-2.435-15.693-5.1-23.378-7.911-7.66-2.8-15.348-5.836-22.85-9.01-7.482-3.165-14.981-6.555-22.288-10.076-7.276-3.506-14.576-7.244-21.7-11.112-7.085-3.85-14.175-7.926-21.071-12.116-6.874-4.177-13.743-8.58-20.415-13.088-6.65-4.492-13.287-9.212-19.727-14.028-4.4-3.288-8.812-6.7-13.125-10.156.509.135,1,.267,1.448.392,4.977,1.38,10.03,2.6,15.019,3.627,4.923,1.013,9.923,1.867,14.859,2.538,4.87.661,9.814,1.163,14.7,1.491,4.814.323,9.7.487,14.528.487,4.931,0,9.94-.171,14.89-.508,4.87-.332,9.818-.835,14.706-1.494,4.808-.648,9.693-1.466,14.52-2.431,4.746-.948,9.568-2.065,14.332-3.32,4.679-1.232,9.437-2.632,14.142-4.161,4.616-1.5,9.309-3.167,13.949-4.954,4.552-1.753,9.179-3.67,13.754-5.7,4.484-1.988,9.045-4.141,13.557-6.4,4.418-2.209,8.912-4.58,13.357-7.046,4.345-2.41,8.771-4.983,13.155-7.647,4.277-2.6,8.634-5.358,12.95-8.2,4.212-2.774,8.5-5.7,12.744-8.706,4.138-2.927,8.355-6.01,12.534-9.163,4.067-3.068,8.213-6.289,12.323-9.573,7.861-6.282,15.937-13.072,24-20.182A285.978,285.978,0,0,1,299.758,86.5c8.776-6.18,18.53-12.479,28.991-18.721,10.091-6.022,20.857-12,32-17.775,10.882-5.638,22.091-11.063,33.316-16.123,11.134-5.019,22.217-9.651,32.944-13.767,10.814-4.149,21.2-7.752,30.882-10.706a274.806,274.806,0,0,1,27.13-6.94A116.317,116.317,0,0,1,506.706,0c9.919,0,16.286,2.247,18.925,6.679a9.819,9.819,0,0,1,1.238,3.474,14.273,14.273,0,0,1-.012,4.261,25.176,25.176,0,0,1-1.334,5.078,45.608,45.608,0,0,1-2.726,5.925,47.142,47.142,0,0,0-3.011,6.636,26.568,26.568,0,0,0-1.385,5.671,16.193,16.193,0,0,0,.1,4.785,12.473,12.473,0,0,0,1.437,3.979,12.873,12.873,0,0,0,1.37,1.944,14.947,14.947,0,0,0,1.735,1.721,21.22,21.22,0,0,0,4.456,2.831,36.714,36.714,0,0,0,5.594,2.114,63.376,63.376,0,0,0,6.516,1.516c9.206,1.675,20.275,2.07,30.979,2.453h0c4.965.177,9.654.345,14.137.632,2.41.155,4.527.329,6.47.534,2.178.229,4.093.49,5.854.8a32.807,32.807,0,0,1,9.207,2.752,11.966,11.966,0,0,1,3.027,2.132,7.27,7.27,0,0,1,1.759,2.757,7.474,7.474,0,0,1,.387,2.637,11.453,11.453,0,0,1-.559,3.113,20.8,20.8,0,0,1-1.581,3.631,38.5,38.5,0,0,1-2.681,4.192c-1.091,1.5-2.389,3.116-3.857,4.795-1.5,1.711-3.217,3.542-5.111,5.44-1.928,1.933-4.1,3.995-6.441,6.128-2.385,2.169-5.026,4.476-7.849,6.859-29.453,24.851-41.906,46.717-37.011,64.99a31.282,31.282,0,0,0,2.054,5.5,35.306,35.306,0,0,0,2.985,5.029,42.306,42.306,0,0,0,3.77,4.571,52.23,52.23,0,0,0,4.408,4.13,85.238,85.238,0,0,0,21.077,12.439c3.324,1.427,6.873,2.773,10.549,4,2.939.981,5.964,1.887,8.989,2.694,5.165,1.378,8.567,1.992,8.6,2l.435.184c-4.515,3.273-9.126,6.5-13.7,9.594-6.679,4.512-13.548,8.916-20.415,13.088-6.9,4.193-13.991,8.269-21.071,12.116-7.113,3.864-14.413,7.6-21.7,11.112-7.321,3.527-14.82,6.917-22.288,10.076-7.5,3.172-15.185,6.2-22.849,9.01-7.7,2.818-15.564,5.48-23.378,7.911-7.875,2.449-15.909,4.73-23.877,6.78-8.025,2.065-16.215,3.955-24.343,5.618-8.187,1.675-16.523,3.163-24.778,4.425-8.314,1.27-16.786,2.347-25.182,3.2-8.458.858-17.055,1.512-25.553,1.943C331.5,306.31,322.791,306.53,314.177,306.53Z" transform="translate(1602.38 2146.43)" stroke="rgba(112,112,112,0)" stroke-width="10" opacity="0.89" fill="url(#linear-gradient-8)"/>
    </g>
    <g transform="matrix(1, 0, 0, 1, -75, -35)" filter="url(#w5)">
      <path id="w5-2" data-name="w5" d="M.051,536.545v0L0,536.3c1.156-.91,2.321-1.849,3.463-2.792.7-.579,1.406-1.169,2.1-1.754C2.032,534.83.068,536.53.053,536.544Zm9.654-8.408v0c2.617-2.351,5.2-4.794,7.663-7.261,4.413-4.413,8.664-9.091,12.637-13.9s7.776-9.9,11.272-15.073c3.509-5.193,6.809-10.625,9.808-16.144,3.013-5.547,5.787-11.305,8.245-17.116,2.479-5.861,4.695-11.914,6.584-17.99,1.909-6.136,3.533-12.449,4.825-18.765A196.016,196.016,0,0,0,73.7,402.441c.333-3.28.588-6.626.757-9.943.169-3.334.254-6.724.254-10.075,0-4.7-.169-9.456-.5-14.145h.5V214.135c.315,19.046,1.171,31.2,2.779,39.419.918,4.692,2.079,8.092,3.548,10.4,1.532,2.4,3.368,3.569,5.615,3.569,3.38,0,7.658-2.684,13.078-8.206s12-13.892,20.137-25.617c15.01-21.621,35.206-54.355,67.53-109.454a481.4,481.4,0,0,1,38.51-56.66A290.51,290.51,0,0,1,262.4,29.012c11.187-9.654,22.1-17.061,32.449-22.015,9.7-4.643,18.574-7,26.391-7A27.871,27.871,0,0,1,335.91,3.721a23.176,23.176,0,0,1,9.212,10.724c2.5,5.643,3.4,12.631,2.673,20.771-.76,8.559-3.3,18.156-7.556,28.526a203.138,203.138,0,0,1-19.207,35.2,352.916,352.916,0,0,1-32.28,40.787c-23.834,26.217-47.014,51.757-68.581,75.986-23.841,26.783-42.646,48.549-57.492,66.543-17.55,21.271-30.01,37.773-38.092,50.448a101.594,101.594,0,0,0-9.174,17.111c-1.816,4.736-2.222,8.3-1.208,10.593.961,2.173,3.228,3.275,6.736,3.275,4.591,0,11.479-1.885,20.473-5.6,9.315-3.851,21.2-9.795,35.315-17.666a233.3,233.3,0,0,1,21.1-10.673c5.237-2.226,9.125-3.355,11.556-3.355,1.621,0,2.631.5,3,1.492.739,1.968-1.017,5.943-5.218,11.815a236.754,236.754,0,0,1-17.949,21.246c-13.929,15.053-34.16,35.066-60.132,59.483C82.8,463.936,30.18,510.246,9.706,528.137Z" transform="translate(2036.57 1565.25)" stroke="rgba(112,112,112,0.08)" stroke-width="10" fill="url(#linear-gradient-9)"/>
    </g>
    <g transform="matrix(1, 0, 0, 1, -75, -35)" filter="url(#w6)">
      <path id="w6-2" data-name="w6" d="M.319,642.381v12.862A75.878,75.878,0,0,1,.319,642.381ZM0,91.6v0Zm.319-.791c5.154,118.742,63.992,88.538,135.06,29.763S219.779-3.223,296.742-66.5s395.266-79.97,104.082,106.855S296.4,101.484,108.312,235.922C-12.33,322.151,16.034,312.726,55.58,303.3c22.11-5.27,47.716-10.539,52.732.908,5.327,12.158,28.332,10.236,49.587,8.312,34.547-3.125,64.472-6.25,6.359,51.088C76.765,449.932,5.26,578.638.319,642.381Z" transform="translate(2110.76 1062.72)" stroke="rgba(112,112,112,0.05)" stroke-width="10" opacity="0.89" fill="url(#linear-gradient-10)"/>
    </g>
    <g transform="matrix(1, 0, 0, 1, -75, -35)" filter="url(#w3)">
      <path id="w3-3" data-name="w3" d="M-.7,43.457c.859,90.265,45.589,13.407,79.778-57.467s152.536-95.8,164.667,57.467S78.149,89.047,45.536,146.333-2.008,236.932-.7,285.051-.7,43.457-.7,43.457Z" transform="translate(2421.9 1701.15)" stroke="rgba(0,0,0,0.06)" stroke-width="10" fill="url(#linear-gradient-11)"/>
    </g>
    <g transform="matrix(1, 0, 0, 1, -75, -35)" filter="url(#Ellipse_13)">
      <g id="Ellipse_13-2" data-name="Ellipse 13" transform="translate(2603.11 717.96)" stroke="#707070" stroke-width="1" opacity="0.76" fill="url(#linear-gradient-12)">
        <circle cx="117.5" cy="117.5" r="117.5" stroke="none"/>
        <circle cx="117.5" cy="117.5" r="117" fill="none"/>
      </g>
    </g>
    <g id="Ellipse_14" data-name="Ellipse 14" transform="translate(1564.111 1194.964)" stroke="#707070" stroke-width="1" fill="url(#linear-gradient-12)">
      <circle cx="31" cy="31" r="31" stroke="none"/>
      <circle cx="31" cy="31" r="30.5" fill="none"/>
    </g>
    <g transform="matrix(1, 0, 0, 1, -75, -35)" filter="url(#Ellipse_15)">
      <g id="Ellipse_15-2" data-name="Ellipse 15" transform="translate(1704.11 2024.96)" stroke="#707070" stroke-width="1" opacity="0.76" fill="url(#linear-gradient-12)">
        <ellipse cx="79.5" cy="84" rx="79.5" ry="84" stroke="none"/>
        <ellipse cx="79.5" cy="84" rx="79" ry="83.5" fill="none"/>
      </g>
    </g>
    <g transform="matrix(1, 0, 0, 1, -75, -35)" filter="url(#Ellipse_16)">
      <g id="Ellipse_16-2" data-name="Ellipse 16" transform="translate(2668.11 1551.96)" stroke="#707070" stroke-width="1" fill="url(#linear-gradient-12)">
        <ellipse cx="53" cy="52.5" rx="53" ry="52.5" stroke="none"/>
        <ellipse cx="53" cy="52.5" rx="52.5" ry="52" fill="none"/>
      </g>
    </g>
  </g>
</svg>
