<svg xmlns="http://www.w3.org/2000/svg" width="77.773" height="77.995" viewBox="0 0 77.773 77.995">
  <g id="Path_1" data-name="Path 1" transform="translate(-147.717 -32.435) rotate(60)" fill="#fff">
    <path d="M 160.6679534912109 -98.10067749023438 L 127.5577621459961 -117.6833724975586 L 141.0233917236328 -124.2578353881836 L 160.4590301513672 -113.0366668701172 L 160.6942291259766 -112.9008636474609 L 160.9361724853516 -113.0242462158203 L 169.2551116943359 -117.2664337158203 L 169.5423583984375 -117.4129104614258 L 169.5274353027344 -117.7350006103516 L 169.1266632080078 -126.386100769043 L 169.114013671875 -126.6592559814453 L 168.877197265625 -126.7959747314453 L 149.0878601074219 -138.2213439941406 L 148.1447601318359 -153.3439483642578 L 181.4611206054688 -134.1087493896484 L 183.299072265625 -109.4667816162109 L 160.6679534912109 -98.10067749023438 Z" stroke="none"/>
    <path d="M 148.7017822265625 -152.4449920654297 L 149.5701904296875 -138.5202331542969 L 169.127197265625 -127.2289962768555 L 169.6008148193359 -126.9555435180664 L 169.6261291503906 -126.4092407226563 L 170.0269012451172 -117.7581481933594 L 170.0567474365234 -117.1139678955078 L 169.4822692871094 -116.8210144042969 L 161.163330078125 -112.5788269042969 L 160.6794281005859 -112.3320770263672 L 160.2090301513672 -112.6036529541016 L 141.0037231445313 -123.6918334960938 L 128.6111450195313 -117.6412658691406 L 160.6875152587891 -98.67002868652344 L 182.7755432128906 -109.7633666992188 L 180.9821624755859 -133.8079223632813 L 148.7017822265625 -152.4449920654297 M 147.5877227783203 -154.2429046630859 L 181.9400634765625 -134.4095764160156 L 183.8225708007813 -109.1701812744141 L 160.6484069824219 -97.53134155273438 L 126.5043792724609 -117.7254791259766 L 141.0430297851563 -124.823844909668 L 160.7090301513672 -113.4696807861328 L 169.0279693603516 -117.7118682861328 L 168.627197265625 -126.3629608154297 L 148.6055297851563 -137.9224700927734 L 147.5877227783203 -154.2429046630859 Z" stroke="none" fill="#fff"/>
  </g>
</svg>
